<?xml version="1.0" encoding="UTF-8"?>
<svg width="1200pt" height="1200pt" version="1.1" viewBox="0 0 1200 1200" xmlns="http://www.w3.org/2000/svg">
 <path d="m639.84 837.72-79.559 0.71875-0.72266-106.44h40.441 39.84zm-175.56-108.84c-119.99-5.3242-239.52-18.352-357.84-39-5.5898-0.87109-11.285 0.73438-15.594 4.3984-4.3125 3.6641-6.8125 9.0234-6.8477 14.684v293.76c0 38.246 15.152 74.938 42.141 102.04 26.988 27.098 63.613 42.402 101.86 42.562h744c38.246-0.16016 74.871-15.465 101.86-42.562 26.988-27.102 42.141-63.793 42.141-102.04v-293.76c-0.019531-5.7344-2.5664-11.164-6.9648-14.844-4.3945-3.6758-10.191-5.2266-15.836-4.2383-118.32 20.609-237.85 33.594-357.84 38.883v0.83984 108.72c0 25.27-10.039 49.504-27.906 67.371-17.867 17.871-42.102 27.91-67.375 27.91h-80.52c-25.27 0-49.504-10.039-67.371-27.91-17.867-17.867-27.906-42.102-27.906-67.371v-108.6-0.83984zm-440.28-184.44v-140.52c0-30.586 12.148-59.918 33.777-81.547 21.625-21.625 50.957-33.773 81.543-33.773h208.08v-88.441c0-39.145 15.551-76.688 43.234-104.37 27.68-27.684 65.223-43.234 104.37-43.234h210.12c39.145 0 76.688 15.551 104.37 43.234 27.68 27.68 43.23 65.223 43.23 104.37v88.441h207.96c30.586 0 59.918 12.148 81.543 33.773 21.629 21.629 33.777 50.961 33.777 81.547v140.52c0.023438 8.8867-3.0195 17.516-8.6172 24.422-5.5938 6.9062-13.402 11.676-22.102 13.496-179.5 36.172-362.18 54.145-545.28 53.641-183.1 0.50391-365.79-17.469-545.28-53.641-8.6992-1.8203-16.508-6.5898-22.102-13.496-5.5977-6.9062-8.6406-15.535-8.6172-24.422zm446.4-255.84h259.2v-88.32c0-6.3672-2.5312-12.473-7.0312-16.973s-10.605-7.0273-16.969-7.0273h-210.72c-6.3633 0-12.469 2.5273-16.969 7.0273s-7.0312 10.605-7.0312 16.973z" fill="#1e888b"/>
</svg>
