<?xml version="1.0" encoding="UTF-8"?>
<svg width="1200pt" height="1200pt" version="1.1" viewBox="0 0 1200 1200" xmlns="http://www.w3.org/2000/svg">
 <path d="m969.01 762.9c65.457 0 118.47-53.051 118.47-118.47v-88.863c0-65.43-53.016-118.47-118.47-118.47h-206.11v-206.11c0-65.445-53.039-118.47-118.47-118.47h-88.84c-65.457 0-118.47 53.027-118.47 118.47v206.11h-206.12c-65.457 0-118.47 53.039-118.47 118.47v88.863c0 65.418 53.016 118.47 118.47 118.47h206.12v206.11c0 65.43 53.016 118.47 118.47 118.47h88.84c65.43 0 118.47-53.039 118.47-118.47v-206.11z" fill="#1e888b"/>
</svg>
